custom-analysis
version=1
nRows=6
nColumns=98
inDegrees=no

This file contains tibia displacement and acting force.

Units are S.I. units (seconds, meters, Newtons, ...)
Angles are in degrees.

endheader
time	APT	SIT	knee_angle	aACL_R_force	pACL_R_force	aPCL_R_force	pPCL_R_force	aMCL_R_force	mMCL_R_force	pMCL_R_force	aLCL_R_force	mLCL_R_force	pLCL_R_force	aPCL_L_force	pPCL_L_force	aMCL_L_force	aLCL_L_force	aACL_R_length	pACL_R_length	aPCL_R_length	pPCL_R_length	aMCL_R_length	mMCL_R_length	pMCL_R_length	aLCL_R_length	mLCL_R_length	pLCL_R_length	aPCL_L_length	pPCL_L_length	aMCL_L_length	aLCL_L_length	aACL_R_strain	pACL_R_strain	aPCL_R_strain	pPCL_R_strain	aMCL_R_strain	mMCL_R_strain	pMCL_R_strain	aLCL_R_strain	mLCL_R_strain	pLCL_R_strain	aPCL_L_strain	pPCL_L_strain	aMCL_L_strain	aLCL_L_strain	femur_lat_meniscii_r.femur_lat_r.force.X	femur_lat_meniscii_r.femur_lat_r.force.Y	femur_lat_meniscii_r.femur_lat_r.force.Z	femur_lat_meniscii_r.femur_lat_r.torque.X	femur_lat_meniscii_r.femur_lat_r.torque.Y	femur_lat_meniscii_r.femur_lat_r.torque.Z	femur_lat_meniscii_r.meniscus_lat_r.force.X	femur_lat_meniscii_r.meniscus_lat_r.force.Y	femur_lat_meniscii_r.meniscus_lat_r.force.Z	femur_lat_meniscii_r.meniscus_lat_r.torque.X	femur_lat_meniscii_r.meniscus_lat_r.torque.Y	femur_lat_meniscii_r.meniscus_lat_r.torque.Z	femur_med_meniscii_r.femur_med_r.force.X	femur_med_meniscii_r.femur_med_r.force.Y	femur_med_meniscii_r.femur_med_r.force.Z	femur_med_meniscii_r.femur_med_r.torque.X	femur_med_meniscii_r.femur_med_r.torque.Y	femur_med_meniscii_r.femur_med_r.torque.Z	femur_med_meniscii_r.meniscus_med_r.force.X	femur_med_meniscii_r.meniscus_med_r.force.Y	femur_med_meniscii_r.meniscus_med_r.force.Z	femur_med_meniscii_r.meniscus_med_r.torque.X	femur_med_meniscii_r.meniscus_med_r.torque.Y	femur_med_meniscii_r.meniscus_med_r.torque.Z	femur_med_tibia_r.tibia_upper_r.force.X	femur_med_tibia_r.tibia_upper_r.force.Y	femur_med_tibia_r.tibia_upper_r.force.Z	femur_med_tibia_r.tibia_upper_r.torque.X	femur_med_tibia_r.tibia_upper_r.torque.Y	femur_med_tibia_r.tibia_upper_r.torque.Z	femur_med_tibia_r.femur_med_r.force.X	femur_med_tibia_r.femur_med_r.force.Y	femur_med_tibia_r.femur_med_r.force.Z	femur_med_tibia_r.femur_med_r.torque.X	femur_med_tibia_r.femur_med_r.torque.Y	femur_med_tibia_r.femur_med_r.torque.Z	femur_lat_tibia_r.tibia_upper_r.force.X	femur_lat_tibia_r.tibia_upper_r.force.Y	femur_lat_tibia_r.tibia_upper_r.force.Z	femur_lat_tibia_r.tibia_upper_r.torque.X	femur_lat_tibia_r.tibia_upper_r.torque.Y	femur_lat_tibia_r.tibia_upper_r.torque.Z	femur_lat_tibia_r.femur_lat_r.force.X	femur_lat_tibia_r.femur_lat_r.force.Y	femur_lat_tibia_r.femur_lat_r.force.Z	femur_lat_tibia_r.femur_lat_r.torque.X	femur_lat_tibia_r.femur_lat_r.torque.Y	femur_lat_tibia_r.femur_lat_r.torque.Z	femur_lat_meniscii_force_r	femur_med_meniscii_force_r	femur_lat_tibia_force_r	femur_med_tibia_force_r
      0.26300737	      0.00413726	     -0.00017502	     40.00017107	     47.47230020	     15.26276158	    110.95783514	     37.16961073	      0.00000000	      0.00000000	      0.00000000	      0.00000000	      0.00000000	      0.00000000	      0.00000000	      0.00000000	      0.00000001	      0.00000000	      0.03341515	      0.02609511	      0.03242653	      0.03044033	      0.05839686	      0.05920539	      0.05733305	      0.05480318	      0.05092669	      0.04665522	      0.01525851	      0.01651186	      0.06550154	      0.04489616	      0.07771682	      0.04135939	      0.04281118	      0.01848694	     -0.02715685	     -0.00983571	     -0.02375264	     -0.02097309	     -0.09573941	     -0.10865842	      0.00000079	     -0.32847694	      0.00000060	     -0.00000086	     78.16214229	     66.15990056	     17.47432589	     -8.77659386	      1.91115880	     32.11915733	    -78.16214229	    -66.15990056	    -17.47432589	      2.21093404	     -2.37389436	     -0.99918285	    116.14094657	     47.53739018	      1.60406827	      0.36719947	     -2.48216972	     47.37862749	   -116.14094657	    -47.53739018	     -1.60406827	     -0.86867239	      2.17367394	     -1.92755388	    -26.07794867	    -26.19576379	      6.24016933	     -0.57685156	      0.49201013	     -0.34032912	     26.07794867	     26.19576379	     -6.24016933	      3.04311151	     -0.45857081	     10.78731628	      0.00000000	      0.00000000	      0.00000000	      0.00000000	      0.00000000	      0.00000000	      0.00000000	      0.00000000	      0.00000000	      0.00000000	      0.00000000	      0.00000000	    103.88361274	    125.50337036	      0.00000000	     37.48622628
      0.26430017	      0.00413966	     -0.00017828	     40.00017107	     47.67612306	     15.39306326	    110.95559475	     37.02456301	      0.00000000	      0.00000000	      0.00000000	      0.00000000	      0.00000000	      0.00000000	      0.00000000	      0.00000000	      0.00000001	      0.00000000	      0.03342223	      0.02610281	      0.03242685	      0.03044029	      0.05839741	      0.05920581	      0.05733330	      0.05480774	      0.05093127	      0.04665962	      0.01525851	      0.01651186	      0.06550154	      0.04489616	      0.07794531	      0.04166656	      0.04282145	      0.01848559	     -0.02714761	     -0.00982868	     -0.02374844	     -0.02089165	     -0.09565817	     -0.10857446	      0.00000079	     -0.32847694	      0.00000060	     -0.00000086	     78.58096421	     66.92017933	     17.60028717	     -8.84669610	      1.92217106	     32.28971452	    -78.58096421	    -66.92017933	    -17.60028717	      2.23469063	     -2.38833054	     -0.99629095	    115.99703749	     47.50103172	      1.48506951	      0.41513476	     -2.47921481	     47.31912776	   -115.99703749	    -47.50103172	     -1.48506951	     -0.87063022	      2.17228328	     -1.92348331	    -25.41160833	    -25.52840837	      6.00469517	     -0.55967372	      0.47784285	     -0.33170405	     25.41160833	     25.52840837	     -6.00469517	      2.93381981	     -0.44657767	     10.51190791	      0.00000000	      0.00000000	      0.00000000	      0.00000000	      0.00000000	      0.00000000	      0.00000000	      0.00000000	      0.00000000	      0.00000000	      0.00000000	      0.00000000	    104.70457701	    125.35496062	      0.00000000	     36.51719918
      0.26642669	      0.00414343	     -0.00018305	     40.00017107	     47.96017219	     15.55400653	    110.88793837	     36.75583380	      0.00000000	      0.00000000	      0.00000000	      0.00000000	      0.00000000	      0.00000000	      0.00000000	      0.00000000	      0.00000001	      0.00000000	      0.03343331	      0.02611490	      0.03242692	      0.03043979	      0.05839784	      0.05920602	      0.05733323	      0.05481452	      0.05093806	      0.04666613	      0.01525851	      0.01651186	      0.06550154	      0.04489616	      0.07830270	      0.04214898	      0.04282395	      0.01846889	     -0.02714051	     -0.00982511	     -0.02374963	     -0.02077059	     -0.09553748	     -0.10845016	      0.00000079	     -0.32847694	      0.00000060	     -0.00000086	     79.64397315	     67.84633680	     17.92676670	     -9.00104052	      1.94649041	     32.72580640	    -79.64397315	    -67.84633680	    -17.92676670	      2.26611295	     -2.42107962	     -1.00812191	    115.83502176	     47.52739233	      1.37952569	      0.45873051	     -2.47463228	     47.25122602	   -115.83502176	    -47.52739233	     -1.37952569	     -0.87310412	      2.16867922	     -1.91671159	    -24.63530651	    -24.71124376	      5.89902297	     -0.54485188	      0.46504772	     -0.32266421	     24.63530651	     24.71124376	     -5.89902297	      2.87658247	     -0.43374604	     10.19148515	      0.00000000	      0.00000000	      0.00000000	      0.00000000	      0.00000000	      0.00000000	      0.00000000	      0.00000000	      0.00000000	      0.00000000	      0.00000000	      0.00000000	    106.14921969	    125.21385058	      0.00000000	     35.38844962
      0.27079028	      0.00415057	     -0.00019136	     40.00017107	     48.46838562	     15.82189204	    110.65914609	     36.15630014	      0.00000000	      0.00000000	      0.00000000	      0.00000000	      0.00000000	      0.00000000	      0.00000000	      0.00000000	      0.00000001	      0.00000000	      0.03345382	      0.02613733	      0.03242649	      0.03043824	      0.05839773	      0.05920550	      0.05733218	      0.05482697	      0.05095056	      0.04667807	      0.01525851	      0.01651186	      0.06550154	      0.04489616	      0.07896398	      0.04304421	      0.04280997	      0.01841672	     -0.02714233	     -0.00983380	     -0.02376748	     -0.02054819	     -0.09531566	     -0.10822198	      0.00000079	     -0.32847694	      0.00000060	     -0.00000086	     79.00698109	     67.58837544	     17.73657980	     -8.91490569	      1.93064503	     32.46211860	    -79.00698109	    -67.58837544	    -17.73657980	      2.25349855	     -2.40209973	     -0.99254939	    115.66527364	     47.56292242	      1.42681986	      0.43930809	     -2.46754148	     47.17948184	   -115.66527364	    -47.56292242	     -1.42681986	     -0.87100995	      2.15929725	     -1.90823827	    -23.69342322	    -23.75717430	      5.81111018	     -0.52886445	      0.45040541	     -0.31111797	     23.69342322	     23.75717430	     -5.81111018	      2.82488164	     -0.41854709	      9.80282762	      0.00000000	      0.00000000	      0.00000000	      0.00000000	      0.00000000	      0.00000000	      0.00000000	      0.00000000	      0.00000000	      0.00000000	      0.00000000	      0.00000000	    105.47453635	    125.07087163	      0.00000000	     34.05217520
      0.27515387	      0.00415837	     -0.00019710	     40.00017107	     48.98492336	     16.10770377	    110.38261698	     36.05240254	      0.00000000	      0.00000000	      0.00000000	      0.00000000	      0.00000000	      0.00000000	      0.00000000	      0.00000000	      0.00000001	      0.00000000	      0.03347168	      0.02615677	      0.03242405	      0.03043477	      0.05839582	      0.05920317	      0.05732941	      0.05483675	      0.05096041	      0.04668741	      0.01525851	      0.01651186	      0.06550154	      0.04489616	      0.07954007	      0.04382000	      0.04273161	      0.01830064	     -0.02717411	     -0.00987284	     -0.02381469	     -0.02037341	     -0.09514061	     -0.10804349	      0.00000079	     -0.32847694	      0.00000060	     -0.00000086	     79.70143071	     68.16571147	     18.58520692	     -9.28393682	      1.95551889	     32.74852734	    -79.70143071	    -68.16571147	    -18.58520692	      2.29803783	     -2.44314407	     -1.00147905	    115.74958537	     47.63115022	      1.89224739	      0.24793171	     -2.46281441	     47.21249915	   -115.74958537	    -47.63115022	     -1.89224739	     -0.85797844	      2.14542020	     -1.90631594	    -24.14908089	    -24.20670180	      5.91669017	     -0.53890834	      0.45890249	     -0.31760907	     24.14908089	     24.20670180	     -5.91669017	      2.87710028	     -0.42685407	      9.99210126	      0.00000000	      0.00000000	      0.00000000	      0.00000000	      0.00000000	      0.00000000	      0.00000000	      0.00000000	      0.00000000	      0.00000000	      0.00000000	      0.00000000	    106.50958733	    125.18096335	      0.00000000	     34.70086083
      0.27559023	      0.00415913	     -0.00019779	     40.00017107	     49.09029557	     16.19853609	    110.35901519	     35.99956650	      0.00000000	      0.00000000	      0.00000000	      0.00000000	      0.00000000	      0.00000000	      0.00000000	      0.00000000	      0.00000001	      0.00000000	      0.03347342	      0.02615864	      0.03242399	      0.03043461	      0.05839580	      0.05920311	      0.05732931	      0.05483788	      0.05096155	      0.04668850	      0.01525851	      0.01651186	      0.06550154	      0.04489616	      0.07959609	      0.04389457	      0.04272967	      0.01829537	     -0.02717444	     -0.00987385	     -0.02381635	     -0.02035330	     -0.09512044	     -0.10802267	      0.00000079	     -0.32847694	      0.00000060	     -0.00000086	     79.66527522	     68.08131661	     18.48368084	     -9.23965825	      1.95387120	     32.73417075	    -79.66527522	    -68.08131661	    -18.48368084	      2.29269551	     -2.43992260	     -1.00224874	    115.75706007	     47.66578751	      1.83499522	      0.27152852	     -2.46328510	     47.21514520	   -115.75706007	    -47.66578751	     -1.83499522	     -0.85939385	      2.14663036	     -1.90540339	    -24.11016495	    -24.16020198	      5.92027944	     -0.53840311	      0.45845663	     -0.31723594	     24.11016495	     24.16020198	     -5.92027944	      2.87789551	     -0.42628142	      9.97605490	      0.00000000	      0.00000000	      0.00000000	      0.00000000	      0.00000000	      0.00000000	      0.00000000	      0.00000000	      0.00000000	      0.00000000	      0.00000000	      0.00000000	    106.41084627	    125.20020552	      0.00000000	     34.64195610
